<svg xmlns="http://www.w3.org/2000/svg" viewBox="0 0 24 24">
  <path fill="#FF9900" d="M15.93 17.09c-2.27.61-4.69.919-7.02.919-3.31 0-6.27-.84-8.51-2.519-.21-.18-.02-.43.23-.29 2.82 1.64 6.31 2.63 9.92 2.63 2.44 0 5.12-.51 7.58-1.57.37-.16.68.24.31.47-.37.23-.74.46-1.11.69m1.15 1.32c-.29-.37-1.93-.18-2.67-.09-.22.03-.26-.17-.06-.31 1.31-.92 3.46-.65 3.71-.35.25.31-.07 2.43-1.28 3.45-.19.16-.37.07-.29-.13.29-.71.92-2.29.63-2.66m-4.46-6.25c2.47-1.54 4.7-3.31 6.67-5.31 1.97-2 3.54-4.23 4.67-6.67 1.13-2.44 1.87-5 2.2-7.67.33-2.67.27-5.33-.2-8-.47-2.67-1.33-5.17-2.6-7.5-1.27-2.33-2.87-4.43-4.8-6.3-1.93-1.87-4.13-3.4-6.6-4.6-2.47-1.2-5.1-2.03-7.9-2.5-2.8-.47-5.67-.53-8.6-.2-2.93.33-5.77 1.1-8.5 2.3-2.73 1.2-5.2 2.77-7.4 4.7-2.2 1.93-4.03 4.2-5.5 6.8-1.47 2.6-2.47 5.43-3 8.5-.53 3.07-.53 6.23 0 9.5.53 3.27 1.6 6.37 3.2 9.3 1.6 2.93 3.7 5.53 6.3 7.8 2.6 2.27 5.6 4.03 9 5.3 3.4 1.27 7.03 1.9 10.9 1.9 3.87 0 7.6-.63 11.2-1.9 3.6-1.27 6.93-3.03 10-5.3z"/>
</svg>
