<svg width="64" height="64" viewBox="0 0 64 64" fill="none" xmlns="http://www.w3.org/2000/svg">
  <path d="M48 16H16C12.6863 16 10 18.6863 10 22V42C10 45.3137 12.6863 48 16 48H48C51.3137 48 54 45.3137 54 42V22C54 18.6863 51.3137 16 48 16Z" stroke="#FFA500" stroke-width="2" stroke-linecap="round" stroke-linejoin="round"/>
  <path d="M32 38C35.3137 38 38 35.3137 38 32C38 28.6863 35.3137 26 32 26C28.6863 26 26 28.6863 26 32C26 35.3137 28.6863 38 32 38Z" stroke="#FFA500" stroke-width="2" stroke-linecap="round" stroke-linejoin="round"/>
  <path d="M20 16V48" stroke="#FFA500" stroke-width="2" stroke-linecap="round" stroke-linejoin="round"/>
  <path d="M44 16V48" stroke="#FFA500" stroke-width="2" stroke-linecap="round" stroke-linejoin="round"/>
</svg>
